<?xml version="1.0" standalone="no"?>
<!DOCTYPE svg PUBLIC "-//W3C//DTD SVG 20010904//EN"
 "http://www.w3.org/TR/2001/REC-SVG-20010904/DTD/svg10.dtd">
<svg version="1.0" xmlns="http://www.w3.org/2000/svg"
 width="1018.000000pt" height="1190.000000pt" viewBox="0 0 1018.000000 1190.000000"
 preserveAspectRatio="xMidYMid meet">
<metadata>
Created by potrace 1.15, written by Peter Selinger 2001-2017
</metadata>
<g transform="translate(0.000000,1190.000000) scale(0.100000,-0.100000)"
fill="#000000" stroke="none">
<path d="M5550 11563 c-58 -24 -115 -47 -127 -50 -36 -8 -44 -25 -32 -69 10
-35 53 -227 66 -297 4 -22 0 -32 -23 -49 -16 -11 -61 -54 -101 -95 -70 -74
-72 -75 -105 -64 -18 6 -76 20 -128 31 -52 11 -109 25 -126 30 -41 13 -70 12
-81 -2 -5 -7 -24 -49 -42 -93 -18 -44 -42 -101 -53 -127 -11 -25 -18 -53 -15
-61 3 -8 73 -58 155 -111 l149 -97 0 -135 c0 -158 19 -131 -175 -249 -101 -61
-132 -85 -132 -101 0 -25 96 -264 113 -280 9 -9 27 -9 77 2 36 8 115 26 177
39 l112 23 98 -97 99 -97 -19 -80 c-10 -43 -22 -95 -27 -114 -24 -95 -38 -165
-35 -170 3 -4 55 -28 117 -54 62 -26 128 -54 146 -62 32 -14 32 -13 60 25 15
22 62 94 104 160 l78 121 135 0 136 0 62 -97 c35 -54 79 -124 98 -155 19 -32
39 -59 45 -62 13 -5 273 99 291 117 11 11 -3 96 -36 212 -5 17 -15 59 -21 95
l-12 65 97 96 98 96 71 -17 c210 -51 278 -64 292 -54 19 11 126 261 122 283
-2 8 -72 58 -157 112 l-154 96 -1 137 -1 136 153 96 c85 53 156 103 159 111 3
7 -14 59 -37 116 -23 56 -48 117 -54 135 -7 18 -17 37 -22 42 -8 8 -112 -12
-209 -39 -16 -5 -59 -15 -95 -21 l-65 -13 -99 98 -98 99 11 35 c6 20 17 68 25
106 8 39 22 101 30 140 9 38 16 73 16 78 0 8 -68 40 -203 94 -107 43 -91 54
-211 -141 l-85 -139 -137 -1 -136 -1 -97 157 c-73 120 -101 157 -116 157 -11
0 -67 -21 -125 -46z m545 -764 c241 -44 411 -299 351 -526 -38 -144 -117 -241
-244 -301 -127 -60 -272 -56 -392 11 -137 77 -230 233 -230 388 0 67 31 171
70 234 52 84 174 167 280 191 71 16 94 16 165 3z"/>
<path d="M3633 9858 c-6 -7 -25 -107 -42 -223 -18 -115 -38 -221 -44 -234 -11
-22 -33 -33 -148 -70 -14 -5 -59 -25 -101 -46 -46 -22 -82 -34 -90 -29 -7 4
-97 67 -200 141 -103 73 -190 133 -195 133 -14 0 -293 -284 -293 -299 0 -7 55
-93 123 -190 68 -97 129 -186 135 -198 10 -19 7 -33 -22 -95 -49 -104 -74
-167 -86 -213 l-10 -41 -240 -39 -240 -39 0 -217 0 -217 68 -11 c75 -13 197
-35 317 -57 47 -9 85 -21 92 -31 7 -8 21 -45 33 -82 11 -36 38 -101 60 -144
22 -45 36 -86 33 -95 -4 -10 -61 -94 -129 -188 -67 -95 -128 -182 -134 -194
-11 -21 -2 -33 137 -172 l150 -150 200 141 c111 78 206 141 212 141 6 0 51
-19 99 -43 48 -24 114 -52 147 -61 33 -10 65 -19 72 -21 6 -2 14 -25 18 -52 3
-26 10 -68 15 -93 4 -25 14 -79 20 -120 6 -41 16 -94 21 -117 5 -23 9 -56 9
-72 l0 -31 220 0 c121 0 220 3 220 8 0 4 7 45 16 92 8 47 19 110 24 140 26
158 43 236 53 242 7 4 41 17 77 28 36 11 105 40 153 65 l88 44 198 -140 c110
-76 205 -139 213 -139 14 0 298 279 298 293 0 5 -63 96 -140 203 -77 106 -140
202 -140 212 0 10 6 26 14 37 22 33 84 181 91 219 4 19 12 42 19 51 11 16 137
41 416 84 32 5 64 12 70 16 6 4 10 82 10 215 0 190 -2 209 -17 214 -10 2 -122
22 -248 42 l-231 38 -24 75 c-13 42 -41 112 -62 156 -21 43 -38 85 -38 93 0 8
63 104 141 214 l141 201 -149 149 c-81 81 -151 148 -156 148 -5 0 -95 -63
-202 -140 -107 -77 -198 -140 -203 -140 -5 0 -47 18 -93 39 -46 22 -118 51
-159 64 -70 23 -75 26 -82 58 -9 39 -69 378 -76 427 l-4 32 -208 0 c-154 0
-210 -3 -217 -12z m347 -1103 c169 -45 311 -159 379 -307 50 -107 64 -173 58
-278 -6 -111 -16 -149 -62 -240 -103 -203 -324 -324 -560 -307 -226 18 -419
172 -499 397 -24 65 -31 192 -16 279 35 211 224 411 429 456 79 17 206 17 271
0z"/>
<path d="M4997 5750 c-41 -12 -51 -24 -119 -122 -196 -286 -390 -426 -688
-496 -255 -60 -492 -82 -899 -82 -522 0 -998 -20 -1201 -51 -189 -29 -386
-104 -530 -202 -66 -46 -195 -172 -249 -245 -74 -99 -148 -256 -172 -367 -29
-129 -39 -264 -39 -518 l0 -267 34 -38 34 -37 339 -3 c361 -4 392 0 433 43 23
25 25 35 32 203 18 413 60 487 303 531 96 18 486 31 903 31 1033 0 1396 111
1725 527 35 44 77 102 93 127 16 25 32 46 36 46 4 0 33 -37 63 -82 200 -299
426 -444 855 -548 205 -50 540 -70 1155 -70 324 0 460 -4 550 -16 233 -29 311
-51 356 -100 52 -57 89 -202 90 -354 0 -52 4 -135 8 -183 7 -81 10 -91 40
-120 l31 -32 366 0 366 0 34 39 34 39 0 281 c-1 403 -20 516 -127 734 -73 150
-159 250 -303 356 -67 50 -234 136 -263 136 -9 0 -18 4 -21 9 -3 4 -18 11 -33
15 -16 3 -62 15 -103 26 -257 70 -507 90 -1125 90 -509 0 -783 14 -955 50
-438 92 -663 227 -851 511 -40 60 -82 115 -93 123 -30 19 -76 26 -109 16z"/>
<path d="M590 2243 c-125 -46 -199 -128 -218 -243 -11 -67 -8 -1698 3 -1755
16 -82 76 -159 154 -196 25 -12 54 -26 63 -31 24 -11 1763 -10 1786 1 9 5 34
16 54 24 53 23 110 78 138 134 l25 48 3 897 2 897 -23 53 c-14 29 -42 70 -63
91 -36 35 -51 45 -127 76 -20 8 -270 11 -905 10 -482 0 -884 -3 -892 -6z"/>
<path d="M4111 2228 c-74 -28 -142 -97 -170 -171 -21 -57 -21 -63 -21 -927 0
-628 3 -877 11 -897 33 -79 44 -98 81 -134 23 -22 57 -46 77 -55 20 -9 44 -20
53 -25 23 -12 1772 -12 1796 0 9 5 34 17 56 27 47 23 112 86 130 128 36 79 36
92 36 962 0 840 -1 865 -20 917 -29 76 -79 131 -155 167 l-63 30 -878 -1
c-867 0 -880 0 -933 -21z"/>
<path d="M7700 2243 c-99 -37 -160 -90 -196 -171 l-24 -53 0 -890 0 -890 27
-55 c30 -62 85 -117 141 -141 20 -8 45 -19 54 -24 23 -11 1762 -12 1786 -1 9
5 38 19 63 31 78 38 138 114 154 196 9 50 9 1734 0 1778 -17 75 -90 164 -164
200 l-46 22 -890 2 c-489 1 -897 -1 -905 -4z"/>
</g>
</svg>
