<?xml version="1.0" standalone="no"?>
<!DOCTYPE svg PUBLIC "-//W3C//DTD SVG 20010904//EN"
 "http://www.w3.org/TR/2001/REC-SVG-20010904/DTD/svg10.dtd">
<svg version="1.0" xmlns="http://www.w3.org/2000/svg"
 width="980.000000pt" height="844.000000pt" viewBox="0 0 980.000000 844.000000"
 preserveAspectRatio="xMidYMid meet">
<metadata>
Created by potrace 1.15, written by Peter Selinger 2001-2017
</metadata>
<g transform="translate(0.000000,844.000000) scale(0.100000,-0.100000)"
fill="#000000" stroke="none">
<path d="M5475 8424 c-16 -2 -73 -9 -125 -15 -295 -33 -649 -147 -903 -290
-232 -130 -386 -248 -583 -444 -195 -195 -357 -411 -459 -615 -15 -30 -29 -57
-31 -59 -1 -2 -15 6 -31 17 -100 71 -333 159 -488 186 -115 20 -342 21 -463 1
-529 -86 -968 -488 -1101 -1009 -16 -61 -32 -141 -36 -178 l-7 -67 -67 -26
c-215 -86 -452 -246 -635 -431 -658 -664 -729 -1712 -167 -2464 73 -98 236
-266 336 -347 214 -172 494 -306 766 -367 198 -44 261 -46 1194 -46 777 0 890
2 923 15 153 64 163 273 17 353 -27 15 -120 18 -965 23 -823 4 -945 7 -1020
22 -214 42 -431 134 -601 252 -117 82 -300 268 -378 384 -395 594 -333 1354
154 1879 160 173 385 314 634 397 165 55 201 100 201 248 0 641 602 1111 1220
954 163 -42 284 -107 423 -230 94 -82 147 -100 228 -75 60 17 101 65 144 164
193 453 484 801 871 1045 643 406 1447 449 2123 114 660 -328 1097 -938 1196
-1671 15 -107 17 -172 12 -378 -6 -233 -5 -250 13 -287 36 -70 111 -109 209
-109 222 0 485 -79 689 -207 322 -202 533 -507 614 -886 30 -144 30 -380 -1
-524 -63 -299 -208 -548 -436 -751 -176 -157 -407 -268 -658 -318 -72 -15
-206 -17 -1076 -21 -961 -4 -996 -5 -1033 -24 -53 -27 -90 -87 -96 -153 -8
-98 49 -179 143 -205 53 -14 1813 -15 1974 -1 1019 90 1749 1030 1575 2030
-122 705 -666 1268 -1362 1410 -55 11 -112 20 -126 20 -26 0 -26 1 -26 78 0
307 -60 658 -155 919 -52 141 -182 401 -262 523 -257 391 -601 695 -1018 900
-196 97 -314 140 -509 190 -222 56 -348 72 -596 75 -118 2 -228 1 -245 -1z"/>
<path d="M3605 5348 c-3 -7 -126 -376 -274 -820 l-269 -808 171 0 172 0 23 78
c13 42 37 121 54 175 l31 97 267 0 267 0 54 -175 54 -175 172 0 172 0 -249
743 c-137 408 -261 777 -275 820 l-27 77 -169 0 c-127 0 -171 -3 -174 -12z
m269 -726 c47 -150 86 -278 86 -283 0 -5 -77 -9 -184 -9 l-183 0 91 290 c50
159 94 286 97 282 4 -4 46 -130 93 -280z"/>
<path d="M4660 4541 l0 -821 165 0 165 0 0 300 0 300 211 0 c235 0 309 11 417
62 81 38 180 131 220 206 105 197 73 449 -76 601 -66 67 -124 103 -225 139
l-72 26 -402 4 -403 3 0 -820z m758 540 c163 -73 205 -309 77 -436 -64 -64
-110 -75 -327 -75 l-178 0 0 271 0 271 188 -4 c170 -3 192 -6 240 -27z"/>
<path d="M6150 4540 l0 -820 165 0 165 0 0 820 0 820 -165 0 -165 0 0 -820z"/>
<path d="M4825 3011 c-27 -13 -210 -189 -562 -542 -560 -563 -555 -557 -539
-641 10 -54 60 -125 105 -148 48 -24 117 -26 169 -5 24 11 149 128 369 348
l333 331 0 -1070 c0 -1213 -6 -1129 81 -1215 97 -98 211 -73 278 62 l31 62 0
1079 c0 593 3 1078 7 1078 4 0 158 -150 343 -334 353 -352 359 -357 445 -355
70 1 145 52 171 116 20 46 17 117 -5 161 -29 56 -1037 1058 -1083 1077 -49 20
-94 19 -143 -4z"/>
</g>
</svg>
