<?xml version="1.0" standalone="no"?>
<!DOCTYPE svg PUBLIC "-//W3C//DTD SVG 20010904//EN"
 "http://www.w3.org/TR/2001/REC-SVG-20010904/DTD/svg10.dtd">
<svg version="1.0" xmlns="http://www.w3.org/2000/svg"
 width="225.000000pt" height="225.000000pt" viewBox="0 0 225.000000 225.000000"
 preserveAspectRatio="xMidYMid meet">
<metadata>
Created by potrace 1.15, written by Peter Selinger 2001-2017
</metadata>
<g transform="translate(0.000000,225.000000) scale(0.100000,-0.100000)"
fill="#000000" stroke="none">
<path d="M877 1916 c-83 -30 -142 -104 -154 -195 l-5 -39 323 -5 c220 -2 337
-8 363 -16 58 -19 131 -93 158 -160 21 -53 22 -74 26 -381 l4 -324 71 -81 c39
-44 74 -80 77 -80 5 0 117 125 148 165 2 3 48 7 101 10 87 5 104 9 147 36 37
23 56 44 79 89 l30 59 0 375 c0 376 0 376 -24 424 -30 60 -89 112 -146 126
-69 17 -1148 14 -1198 -3z"/>
<path d="M131 1594 c-63 -32 -104 -89 -121 -168 -8 -34 -11 -166 -8 -396 3
-391 5 -399 86 -472 46 -41 94 -58 167 -58 50 0 51 -1 140 -90 l90 -90 90 90
90 89 350 3 350 3 45 27 c53 31 82 68 104 132 23 69 24 716 0 795 -19 65 -81
131 -140 149 -31 9 -190 12 -616 12 l-574 0 -53 -26z"/>
</g>
</svg>
