<?xml version="1.0" standalone="no"?>
<!DOCTYPE svg PUBLIC "-//W3C//DTD SVG 20010904//EN"
 "http://www.w3.org/TR/2001/REC-SVG-20010904/DTD/svg10.dtd">
<svg version="1.0" xmlns="http://www.w3.org/2000/svg"
 width="225.000000pt" height="225.000000pt" viewBox="0 0 225.000000 225.000000"
 preserveAspectRatio="xMidYMid meet">
<metadata>
Created by potrace 1.15, written by Peter Selinger 2001-2017
</metadata>
<g transform="translate(0.000000,225.000000) scale(0.100000,-0.100000)"
fill="#000000" stroke="none">
<path d="M798 2240 c-298 -27 -531 -101 -648 -207 -62 -55 -89 -109 -90 -174
0 -42 4 -49 35 -74 123 -93 407 -163 755 -185 423 -27 900 48 1088 171 l52 34
0 58 c0 109 -59 178 -215 253 -104 49 -236 86 -385 109 -127 19 -458 27 -592
15z"/>
<path d="M62 1488 l3 -183 48 -32 c101 -67 300 -126 542 -160 150 -20 574 -23
715 -5 271 37 477 96 583 169 l37 26 0 181 0 182 -78 -38 c-221 -106 -542
-155 -970 -145 -370 8 -622 56 -820 156 l-62 32 2 -183z"/>
<path d="M60 980 l0 -179 44 -31 c93 -64 283 -124 490 -154 132 -20 456 -40
467 -29 4 5 9 26 11 48 3 39 4 40 52 52 26 7 50 14 52 16 2 2 -9 21 -26 43
-16 21 -30 45 -30 53 0 7 36 50 79 95 l80 81 -257 0 c-406 0 -667 45 -886 151
-39 19 -71 34 -73 34 -2 0 -3 -81 -3 -180z"/>
<path d="M1612 988 c-5 -7 -13 -33 -17 -57 -9 -52 -43 -91 -80 -91 -15 0 -46
14 -70 30 -24 17 -50 30 -57 30 -20 0 -108 -93 -108 -113 0 -10 11 -35 25 -55
44 -65 25 -126 -43 -138 -70 -12 -82 -27 -82 -97 0 -34 4 -68 9 -76 5 -7 30
-17 57 -22 54 -10 94 -45 94 -82 0 -12 -11 -39 -25 -59 -14 -20 -25 -46 -25
-56 0 -18 90 -112 107 -112 4 0 28 14 53 30 25 16 55 30 66 30 36 0 73 -38 80
-81 10 -58 25 -69 99 -69 73 0 95 14 95 61 0 36 39 79 72 79 13 0 41 -11 63
-25 22 -13 44 -25 48 -25 17 0 107 94 107 112 0 10 -11 36 -25 56 -14 20 -25
47 -25 59 0 37 40 72 94 82 27 5 52 15 57 22 5 8 9 42 9 76 0 70 -12 85 -82
97 -60 11 -88 73 -55 121 8 11 22 32 31 47 l18 27 -53 56 c-28 30 -58 55 -66
55 -8 0 -31 -11 -51 -25 -65 -44 -126 -25 -137 43 -13 79 -16 82 -99 82 -47 0
-77 -5 -84 -12z m108 -79 c0 -32 38 -94 68 -111 49 -29 96 -32 147 -9 68 30
82 16 49 -47 -28 -52 -27 -102 3 -153 17 -29 79 -69 107 -69 10 0 16 -9 16
-24 0 -19 -7 -25 -34 -30 -95 -18 -144 -128 -100 -222 13 -27 14 -37 4 -49
-11 -13 -15 -13 -41 0 -40 21 -118 19 -153 -4 -33 -22 -66 -68 -66 -93 0 -12
-8 -18 -23 -18 -19 0 -26 8 -36 39 -28 94 -147 134 -233 77 -23 -15 -26 -15
-38 0 -12 13 -12 19 0 37 21 35 29 85 18 125 -13 48 -65 99 -111 107 -30 6
-37 12 -37 30 0 18 7 24 34 29 41 8 82 44 102 91 19 46 18 71 -7 124 -16 37
-17 47 -7 58 11 10 22 8 62 -12 59 -30 78 -31 133 -5 46 20 79 64 89 118 5 25
11 32 30 32 18 0 24 -6 24 -21z"/>
<path d="M1650 690 c-47 -8 -72 -23 -108 -64 -135 -153 39 -381 225 -297 80
37 126 134 103 220 -11 43 -58 104 -94 123 -31 17 -86 25 -126 18z m90 -85
c37 -19 60 -62 60 -111 0 -28 -8 -44 -34 -70 -29 -29 -41 -34 -81 -34 -40 0
-52 5 -81 34 -93 93 18 242 136 181z"/>
<path d="M60 503 c0 -151 1 -162 26 -211 61 -122 279 -219 604 -269 85 -13
177 -17 352 -18 130 0 240 4 244 8 4 4 -27 42 -69 85 -42 43 -77 86 -77 96 0
11 11 34 25 52 14 18 25 35 25 37 0 3 -21 8 -47 12 -67 10 -73 17 -73 94 l0
67 -202 12 c-112 6 -259 21 -328 33 -201 34 -274 58 -472 157 -5 2 -8 -68 -8
-155z"/>
</g>
</svg>
