<?xml version="1.0" standalone="no"?>
<!DOCTYPE svg PUBLIC "-//W3C//DTD SVG 20010904//EN"
 "http://www.w3.org/TR/2001/REC-SVG-20010904/DTD/svg10.dtd">
<svg version="1.0" xmlns="http://www.w3.org/2000/svg"
 width="200.000000pt" height="200.000000pt" viewBox="0 0 200.000000 200.000000"
 preserveAspectRatio="xMidYMid meet">
<metadata>
Created by potrace 1.15, written by Peter Selinger 2001-2017
</metadata>
<g transform="translate(0.000000,200.000000) scale(0.100000,-0.100000)"
fill="#000000" stroke="none">
<path d="M1509 1568 c-153 -156 -279 -290 -279 -298 0 -21 20 -40 42 -40 10 0
39 19 63 41 l45 42 0 -41 c0 -129 -185 -158 -220 -34 -18 66 38 142 105 142
40 0 59 21 51 55 -12 45 -89 42 -162 -7 -43 -29 -84 -109 -84 -162 1 -202 271
-269 371 -93 26 47 31 135 10 176 -12 21 -9 27 35 72 l48 49 38 -37 38 -37 0
-196 0 -195 -375 -375 -375 -375 -301 301 -300 300 371 377 372 377 195 0
c180 0 197 -2 220 -20 23 -18 29 -19 47 -6 30 20 30 39 1 75 l-27 31 -236 0
-237 0 -401 -402 c-221 -222 -404 -412 -408 -422 -6 -16 58 -85 342 -368 283
-284 352 -348 368 -342 10 4 200 187 422 408 l402 401 0 235 0 234 -47 48 -47
48 116 118 c137 138 147 153 118 182 -11 11 -25 20 -31 20 -6 0 -137 -127
-290 -282z"/>
<path d="M693 1038 c-123 -122 -229 -231 -234 -240 -14 -25 6 -58 34 -58 16 0
90 68 256 235 229 229 234 235 219 257 -9 13 -23 25 -33 26 -11 3 -91 -70
-242 -220z"/>
<path d="M833 898 c-79 -79 -146 -153 -150 -166 -6 -27 12 -52 40 -52 25 0
305 275 314 308 6 27 -12 52 -40 52 -13 0 -73 -52 -164 -142z"/>
<path d="M975 749 c-167 -166 -235 -240 -235 -256 0 -28 33 -48 58 -34 9 5
118 111 240 234 150 151 223 231 220 242 -1 10 -13 24 -26 33 -22 15 -28 10
-257 -219z"/>
</g>
</svg>
