<?xml version="1.0" standalone="no"?>
<!DOCTYPE svg PUBLIC "-//W3C//DTD SVG 20010904//EN"
 "http://www.w3.org/TR/2001/REC-SVG-20010904/DTD/svg10.dtd">
<svg version="1.0" xmlns="http://www.w3.org/2000/svg"
 width="225.000000pt" height="225.000000pt" viewBox="0 0 225.000000 225.000000"
 preserveAspectRatio="xMidYMid meet">
<metadata>
Created by potrace 1.15, written by Peter Selinger 2001-2017
</metadata>
<g transform="translate(0.000000,225.000000) scale(0.100000,-0.100000)"
fill="#000000" stroke="none">
<path d="M1035 2226 c-551 -184 -994 -340 -1010 -357 -20 -19 -20 -35 -23
-713 l-2 -694 22 -26 c31 -35 1078 -441 1117 -433 60 12 1067 409 1086 427 20
20 20 32 22 708 3 736 4 723 -47 749 -38 20 -1060 363 -1079 363 -9 -1 -47
-11 -86 -24z m465 -291 c206 -69 376 -127 377 -129 4 -4 -739 -286 -752 -286
-5 0 -178 64 -383 142 l-374 142 38 14 c56 20 708 240 715 241 3 1 174 -55
379 -124z m-835 -445 l360 -138 3 -562 c2 -449 0 -561 -10 -557 -7 3 -196 76
-420 162 l-408 158 0 558 0 559 58 -22 c31 -12 219 -83 417 -158z m1395 -379
l0 -558 -407 -158 c-225 -86 -414 -159 -420 -162 -10 -4 -13 111 -13 555 l0
560 93 36 c239 92 742 285 745 286 1 0 2 -251 2 -559z"/>
</g>
</svg>
