<?xml version="1.0" standalone="no"?>
<!DOCTYPE svg PUBLIC "-//W3C//DTD SVG 20010904//EN"
 "http://www.w3.org/TR/2001/REC-SVG-20010904/DTD/svg10.dtd">
<svg version="1.0" xmlns="http://www.w3.org/2000/svg"
 width="225.000000pt" height="224.000000pt" viewBox="0 0 225.000000 224.000000"
 preserveAspectRatio="xMidYMid meet">
<metadata>
Created by potrace 1.15, written by Peter Selinger 2001-2017
</metadata>
<g transform="translate(0.000000,224.000000) scale(0.100000,-0.100000)"
fill="#000000" stroke="none">
<path d="M790 2227 c-14 -7 -127 -73 -251 -145 -224 -131 -249 -151 -249 -200
0 -9 30 -68 66 -131 l66 -114 -43 -83 -44 -84 -115 0 c-63 0 -132 -5 -152 -11
-67 -18 -69 -30 -66 -355 l3 -286 28 -24 c27 -23 35 -24 165 -24 l138 0 26
-53 c15 -28 36 -66 47 -82 l20 -30 -65 -115 c-65 -118 -76 -158 -50 -193 17
-23 495 -297 518 -297 45 0 70 26 135 139 l66 116 95 -1 96 0 67 -114 c69
-118 98 -145 145 -135 11 3 129 68 261 145 253 148 275 166 258 222 -4 13 -34
69 -66 125 -33 56 -59 106 -59 111 0 5 16 36 35 67 19 32 37 67 41 77 5 16 18
18 122 18 64 0 134 5 154 11 67 18 69 30 66 355 l-3 286 -28 24 c-27 23 -35
24 -166 24 l-137 0 -18 38 c-10 20 -31 58 -47 83 l-29 46 65 114 c70 122 79
161 45 196 -25 27 -490 293 -512 293 -45 0 -70 -26 -135 -139 l-66 -116 -96 1
-96 0 -66 114 c-49 84 -74 118 -95 127 -37 16 -44 16 -74 0z m69 -311 c70
-119 84 -129 172 -114 30 5 100 6 157 2 81 -5 107 -3 125 9 12 8 47 58 76 111
30 53 58 96 62 96 4 0 71 -36 148 -81 l142 -81 -25 -42 c-111 -190 -112 -193
-46 -280 21 -28 55 -86 76 -129 53 -112 61 -117 205 -117 l119 0 0 -170 0
-170 -121 0 c-66 0 -129 -5 -140 -11 -11 -5 -38 -49 -60 -96 -21 -48 -57 -110
-79 -138 -55 -72 -53 -97 15 -214 30 -51 55 -97 55 -101 0 -6 -273 -170 -284
-170 -2 0 -31 47 -64 104 -72 122 -81 128 -191 114 -46 -6 -102 -7 -148 -1
-106 13 -122 3 -192 -119 -30 -54 -58 -98 -62 -98 -4 0 -70 36 -148 81 l-141
81 32 56 c72 126 88 158 88 178 0 12 -18 46 -41 75 -22 30 -60 95 -84 145 -31
64 -52 94 -70 102 -15 7 -74 12 -140 12 l-115 0 0 170 0 170 121 0 c66 0 129
5 139 10 11 6 37 49 60 97 22 48 58 111 80 140 54 71 53 93 -16 214 -31 55
-54 102 -51 105 9 9 272 163 279 164 3 0 34 -47 67 -104z"/>
<path d="M1236 1555 c-54 -19 -106 -63 -141 -120 -27 -44 -30 -57 -31 -143
l-2 -94 -206 -207 c-169 -170 -206 -212 -206 -235 0 -20 16 -44 57 -87 89 -94
81 -97 323 148 l205 206 85 1 c63 1 95 6 125 21 51 25 105 80 130 130 23 48
31 158 15 199 l-11 30 -97 -97 -98 -97 -46 16 c-56 19 -63 26 -80 87 l-12 47
94 95 94 94 -28 11 c-38 14 -123 12 -170 -5z"/>
</g>
</svg>
