<svg xmlns="http://www.w3.org/2000/svg" xmlns:xlink="http://www.w3.org/1999/xlink" version="1.1" viewBox="0 0 1013 1024" x="0px" y="0px" width="1013px" height="1024px"><path d="M852.168 837.453c-48.885 51.41-97.713 102.88-146.736 154.156-4.877 5.099-5.236 8.605 0.405 13.107 5.458 4.361 10.846 8.975 15.437 14.203 5.855 6.664 10.186 6.657 17.125 0.657 39.475-34.124 78.587-68.745 119.417-101.189 47.801-37.989 97.236-73.916 145.953-110.748 2.735-2.066 5.374-4.258 9.174-7.279-3.59-2.998-6.241-5.553-9.216-7.638-91.614-64.135-177.98-134.851-261.906-208.637-12.909-11.347-10.468-11.778-23.431 0.286-19.348 18.015-19.233 17.843-0.917 37.038 46.342 48.568 92.534 97.266 138.773 145.934 1.226 1.291 2.204 2.826 3.972 5.133-2.788 0.47-4.533 1.001-6.283 1.024-74.206 0.936-148.153-1.264-221.282-15.807-153.015-30.423-285.344-98.909-391.93-213.953-86.244-93.088-141.645-202.721-170.732-325.934-15.796-66.908-21.891-134.82-21.047-203.458 0.176-14.15 0.008-14.161-14.135-14.223-7.951-0.038-15.918 0.244-23.858-0.103-8.265-0.359-10.835 3.158-10.908 11.351-0.493 58.96 2.91 117.573 13.241 175.716 19.508 109.801 58.712 211.814 121.384 304.272 101.028 149.054 238.961 247.913 411.029 299.578 68.84 20.673 139.323 32.173 211.173 34.651 30.19 1.043 60.419 1.043 90.629 1.505 3.773 0.057 7.547 0.008 11.316 0.008 0.355 0.756 0.71 1.516 1.058 2.272-2.566 2.693-5.144 5.377-7.707 8.078z"/><path d="M859.879 829.376c-2.57 2.693-5.148 5.377-7.711 8.078-48.885 51.41-97.713 102.88-146.736 154.156-4.877 5.099-5.236 8.605 0.405 13.107 5.458 4.361 10.846 8.975 15.437 14.203 5.855 6.664 10.186 6.657 17.125 0.657 39.475-34.124 78.587-68.745 119.417-101.189 47.801-37.989 97.236-73.916 145.953-110.748 2.735-2.066 5.374-4.258 9.174-7.279-3.59-2.998-6.241-5.553-9.216-7.638-91.614-64.135-177.98-134.851-261.906-208.637-12.909-11.347-10.468-11.778-23.431 0.286-19.348 18.015-19.233 17.843-0.917 37.038 46.342 48.568 92.534 97.266 138.773 145.934 1.226 1.291 2.204 2.826 3.972 5.133-2.788 0.47-4.533 1.001-6.283 1.024-74.206 0.936-148.153-1.264-221.282-15.807-153.015-30.423-285.344-98.909-391.93-213.953-86.244-93.088-141.645-202.721-170.732-325.934-15.796-66.908-21.891-134.82-21.047-203.458 0.176-14.15 0.008-14.161-14.135-14.223-7.951-0.038-15.918 0.244-23.858-0.103-8.265-0.359-10.835 3.158-10.908 11.351-0.493 58.96 2.91 117.573 13.241 175.716 19.508 109.801 58.712 211.814 121.384 304.272 101.028 149.054 238.961 247.913 411.029 299.578 68.84 20.673 139.323 32.173 211.173 34.651 30.19 1.043 60.419 1.043 90.629 1.505 3.773 0.057 7.547 0.008 11.316 0.008 0.355 0.76 0.71 1.52 1.062 2.272z"/></svg>