<?xml version="1.0" standalone="no"?>
<!DOCTYPE svg PUBLIC "-//W3C//DTD SVG 20010904//EN"
 "http://www.w3.org/TR/2001/REC-SVG-20010904/DTD/svg10.dtd">
<svg version="1.0" xmlns="http://www.w3.org/2000/svg"
 width="225.000000pt" height="225.000000pt" viewBox="0 0 225.000000 225.000000"
 preserveAspectRatio="xMidYMid meet">
<metadata>
Created by potrace 1.15, written by Peter Selinger 2001-2017
</metadata>
<g transform="translate(0.000000,225.000000) scale(0.100000,-0.100000)"
fill="#000000" stroke="none">
<path d="M25 2085 c-24 -24 -25 -28 -25 -180 0 -151 6 -189 34 -207 6 -4 118
-8 248 -8 225 0 239 1 258 20 18 18 20 33 20 189 l0 170 -26 20 c-25 20 -39
21 -256 21 l-229 0 -24 -25z"/>
<path d="M707 1963 c-4 -3 -7 -35 -7 -70 l0 -63 680 0 681 0 24 -25 25 -24 0
-234 c0 -299 10 -281 -159 -286 l-121 -3 0 141 c0 78 -2 141 -5 141 -3 0 -98
-77 -211 -172 -165 -138 -202 -174 -192 -184 7 -7 101 -85 208 -174 l195 -163
3 141 3 141 143 3 c131 3 145 5 178 27 41 29 75 75 88 122 14 48 13 498 -1
540 -19 56 -59 100 -113 125 l-51 24 -681 0 c-374 0 -684 -3 -687 -7z"/>
<path d="M734 1392 c-26 -17 -32 -55 -33 -195 -2 -143 4 -180 33 -199 6 -4
119 -8 252 -8 221 0 242 2 257 18 24 27 25 352 1 376 -13 14 -51 16 -257 16
-133 0 -247 -4 -253 -8z"/>
<path d="M125 1246 c-36 -16 -81 -59 -103 -101 -15 -26 -17 -75 -20 -350 -2
-223 0 -332 8 -360 16 -55 53 -101 103 -128 42 -22 46 -22 529 -25 l487 -3 3
-135 3 -135 200 167 c110 91 201 169 203 173 2 7 -392 341 -403 341 -3 0 -5
-61 -5 -135 l0 -135 -470 0 -471 0 -24 25 -25 24 0 304 c0 285 1 306 19 328
19 23 23 24 210 27 l191 3 0 65 0 64 -202 0 c-146 -1 -211 -5 -233 -14z"/>
<path d="M1710 540 c-18 -18 -20 -33 -20 -189 l0 -170 26 -20 c25 -20 39 -21
256 -21 l229 0 24 25 c24 24 25 28 25 180 0 151 -6 189 -34 207 -6 4 -118 8
-248 8 -225 0 -239 -1 -258 -20z"/>
</g>
</svg>
