<?xml version="1.0" standalone="no"?>
<!DOCTYPE svg PUBLIC "-//W3C//DTD SVG 20010904//EN"
 "http://www.w3.org/TR/2001/REC-SVG-20010904/DTD/svg10.dtd">
<svg version="1.0" xmlns="http://www.w3.org/2000/svg"
 width="980.000000pt" height="718.000000pt" viewBox="0 0 980.000000 718.000000"
 preserveAspectRatio="xMidYMid meet">
<metadata>
Created by potrace 1.15, written by Peter Selinger 2001-2017
</metadata>
<g transform="translate(0.000000,718.000000) scale(0.100000,-0.100000)"
fill="#000000" stroke="none">
<path d="M4575 7163 c-22 -2 -98 -10 -170 -19 -1260 -148 -2452 -885 -3486
-2154 -300 -368 -653 -896 -858 -1282 l-63 -118 58 -107 c259 -485 631 -1021
1046 -1506 158 -184 554 -580 733 -733 854 -728 1713 -1121 2667 -1219 194
-20 597 -20 799 0 1437 143 2772 1023 3881 2560 186 258 428 644 557 887 l63
118 -58 107 c-334 625 -838 1310 -1349 1832 -954 974 -1982 1514 -3096 1626
-138 14 -601 19 -724 8z m590 -1294 c388 -40 791 -202 1120 -449 440 -331 754
-831 864 -1375 33 -165 43 -271 43 -455 0 -370 -77 -699 -239 -1024 -483 -965
-1570 -1465 -2613 -1201 -882 223 -1552 949 -1704 1846 -38 222 -38 535 0 758
137 814 716 1507 1484 1779 353 124 663 160 1045 121z"/>
<path d="M4702 4736 c-245 -47 -451 -155 -622 -326 -130 -130 -223 -279 -280
-448 -80 -240 -80 -504 0 -744 124 -370 432 -655 817 -754 121 -32 320 -43
443 -25 470 69 842 402 967 868 24 89 27 114 27 283 0 168 -3 194 -26 281
-117 432 -430 742 -861 850 -107 27 -358 35 -465 15z"/>
</g>
</svg>
